<?xml version="1.0" encoding="UTF-8"?>
<svg width="904px" height="500px" viewBox="0 0 904 500" version="1.1" xmlns="http://www.w3.org/2000/svg" xmlns:xlink="http://www.w3.org/1999/xlink">
    <title>Group 4</title>
    <g id="Page-1" stroke="none" stroke-width="1" fill="none" fill-rule="evenodd">
        <g id="Group-4" fill="#FFFFFF" fill-rule="nonzero">
            <g id="Group-18">
                <path d="M102.754817,227.331606 L205.509634,4.38985171 L0,4.38985171 L102.754817,227.331606 Z M102.754817,199.738253 L18.1700591,15.9916026 L187.652852,15.9916026 L102.754817,199.738253 Z M437.334526,222.941755 L334.579709,0 L231.824892,222.941755 L437.334526,222.941755 Z M419.164466,211.340004 L249.994951,211.340004 L334.579709,27.5933536 L419.164466,211.340004 Z M662.580603,222.941755 L662.580603,211.340004 L510.641316,211.340004 L510.641316,4.70341254 L499.050071,4.70341254 L499.050071,222.941755 L662.580603,222.941755 Z M796.036554,222.941755 C811.909249,222.941755 826.58105,218.969984 840.051956,211.026443 C853.522862,203.082902 864.226488,192.369573 872.162836,178.886457 C880.099184,165.403341 884.067358,150.718242 884.067358,134.83116 L884.067358,134.83116 L884.067358,92.8140075 C884.067358,76.9269251 880.099184,62.241826 872.162836,48.75871 C864.226488,35.2755941 853.522862,24.5622655 840.051956,16.6187243 C826.58105,8.67518313 811.909249,4.70341254 796.036554,4.70341254 L796.036554,4.70341254 L715.524396,4.70341254 L715.524396,222.941755 L796.036554,222.941755 Z M795.723277,211.340004 L727.11564,211.340004 L727.11564,16.3051635 L795.723277,16.3051635 C809.50746,16.3051635 822.299599,19.7543327 834.099695,26.6526711 C845.899791,33.5510095 855.245884,42.8533143 862.137976,54.5595855 C869.030067,66.2658567 872.476113,79.0173307 872.476113,92.8140075 L872.476113,92.8140075 L872.476113,134.83116 C872.476113,148.627836 869.030067,161.37931 862.137976,173.085582 C855.245884,184.791853 845.899791,194.094158 834.099695,200.992496 C822.299599,207.890834 809.50746,211.340004 795.723277,211.340004 L795.723277,211.340004 Z" id="VAld"></path>
                <path d="M207.842887,499.686641 L207.842887,281.589092 L196.248645,281.589092 L120.416035,416.333268 L44.270067,281.589092 L31.7357513,281.589092 L31.7357513,499.686641 L207.842887,499.686641 Z M196.248645,488.405734 L43.3299933,488.405734 L43.3299933,303.210832 L114.775593,429.180968 L125.743119,429.180968 L196.248645,305.090983 L196.248645,488.405734 Z M454.455549,500 L351.67416,277.202073 L248.892771,500 L454.455549,500 Z M436.280791,488.405734 L267.067529,488.405734 L351.67416,304.777625 L436.280791,488.405734 Z M673.806074,500 L618.341727,422.600439 C633.591811,418.422325 646.230579,409.909418 656.258032,397.061717 C666.285484,384.214017 671.299211,369.642844 671.299211,353.3482 C671.299211,340.187141 668.165632,328.175063 661.898474,317.311967 C655.631316,306.44887 646.857295,297.883737 635.576411,291.616566 C624.086621,285.140489 609.254348,281.902451 591.07959,281.902451 L591.07959,281.902451 L506.159601,281.902451 L506.159601,500 L673.806074,500 Z M611.134495,412.572965 L525.901148,293.496717 L591.392948,293.496717 C606.225222,293.496717 618.237274,295.79468 627.429106,300.390605 C637.665464,305.404342 645.603863,312.611588 651.244306,322.012345 C656.884748,331.413101 659.704969,341.858386 659.704969,353.3482 C659.704969,367.762693 655.109053,380.50594 645.917221,391.577942 C636.72539,402.649944 625.131148,409.648285 611.134495,412.572965 L611.134495,412.572965 Z M598.286822,413.513041 L517.753843,413.513041 L517.753843,301.017322 L598.286822,413.513041 Z M651.871021,488.405734 L517.753843,488.405734 L517.753843,425.107307 L596.406674,425.107307 L606.120769,424.793949 L651.871021,488.405734 Z M821.084283,500 L821.084283,293.496717 L903.497409,293.496717 L903.497409,281.902451 L727.390274,281.902451 L727.390274,293.496717 L809.803399,293.496717 L809.803399,500 L821.084283,500 Z" id="MARt"></path>
            </g>
        </g>
    </g>
</svg>